<?xml version="1.0" encoding="UTF-8"?>
<svg version="1.1" xmlns="http://www.w3.org/2000/svg" width="64" height="64">
<path d="M0 0 C2.31 0 4.62 0 7 0 C7 2.31 7 4.62 7 7 C8.98 7 10.96 7 13 7 C13 8.98 13 10.96 13 13 C15.31 13 17.62 13 20 13 C20 14.98 20 16.96 20 19 C21.98 19 23.96 19 26 19 C26 21.64 26 24.28 26 27 C24.02 27 22.04 27 20 27 C20 28.98 20 30.96 20 33 C17.69 33 15.38 33 13 33 C13 34.98 13 36.96 13 39 C11.02 39 9.04 39 7 39 C7 41.31 7 43.62 7 46 C4.69 46 2.38 46 0 46 C0 43.69 0 41.38 0 39 C1.98 39 3.96 39 6 39 C6 36.69 6 34.38 6 32 C7.98 32 9.96 32 12 32 C12 30.35 12 28.7 12 27 C-0.54 27 -13.08 27 -26 27 C-26 24.36 -26 21.72 -26 19 C-13.46 19 -0.92 19 12 19 C12 17.35 12 15.7 12 14 C10.02 14 8.04 14 6 14 C6 11.69 6 9.38 6 7 C4.02 7 2.04 7 0 7 C0 4.69 0 2.38 0 0 Z " fill="#FFFFFF" transform="translate(32,9)"/>
</svg>
