<svg width="34" height="40" viewBox="0 0 34 40" fill="none" xmlns="http://www.w3.org/2000/svg">
<g clip-path="url(#clip0_164_10)">
<path d="M31.8795 26.192C20.2267 27.3824 19.2619 28.3472 18.0719 40C16.8819 28.3472 15.9171 27.3824 4.2643 26.192C15.9171 25.002 16.8819 24.0372 18.0719 12.3844C19.2619 24.0376 20.2267 25.0024 31.8795 26.192ZM24.0663 0C23.2515 7.9824 22.5907 8.6432 14.6079 9.4584C22.5907 10.2736 23.2515 10.9344 24.0663 18.9168C24.8819 10.9344 25.5427 10.2736 33.5247 9.4584C25.5427 8.6432 24.8819 7.9824 24.0663 0ZM8.1583 6.4256C7.4959 12.9096 6.9591 13.4468 0.475098 14.1088C6.9591 14.7712 7.4963 15.308 8.1583 21.792C8.8207 15.308 9.3575 14.7708 15.8419 14.1088C9.3575 13.4468 8.8207 12.91 8.1583 6.4256Z" fill="white"/>
</g>
<defs>
<clipPath id="clip0_164_10">
<rect width="34" height="40" fill="white"/>
</clipPath>
</defs>
</svg>
